<?xml version="1.0" encoding="utf-8"?>
<!-- Generator: Adobe Illustrator 24.0.2, SVG Export Plug-In . SVG Version: 6.00 Build 0)  -->
<svg version="1.1" id="Layer_1" xmlns="http://www.w3.org/2000/svg" xmlns:xlink="http://www.w3.org/1999/xlink" x="0px" y="0px"
	 viewBox="0 0 209 227.6" style="enable-background:new 0 0 209 227.6;" xml:space="preserve">
<style type="text/css">
	.st0{fill:#C61B1E;}
	.st1{fill:none;stroke:#020200;stroke-width:5;stroke-miterlimit:10;}
</style>
<title>knight_logo</title>
<path class="st0" d="M104.5,216.7C48.4,201.8,6,134,6,52.5C6,46.9,6.2,41.4,6.6,36c6,0.8,12,1.1,18,1.1c29.3,0,57.8-9.1,81.1-26.1
	c23.2,16.9,51.7,26.1,81.1,26.1c5.2,0,11.1-2.5,16.3-3.1c0.4,5.4,0,13,0,18.5C203,134,160.6,201.8,104.5,216.7z"/>
<path class="st1" d="M104.3,216.9L104.3,216.9C48.2,201.8,6,134.2,6,51.7C6,46.1,6.2,40.5,6.6,35c6,0.8,12,1.2,18,1.2
	c30.4,0,58.7-8.6,81.1-25.2l0,0c32.1,27.3,92.4,25.2,95.6,25.1C205.7,36.7,209.2,178.3,104.3,216.9z"/>
<path d="M129.5,164c-7,5.9-14.8,10.8-23.2,14.5c0,0-22.6-15.1-32.5-25.5l-7-6.4l-4-29l7.5,3.5l2.6,24l4.3,3.2l-1.2-23.2l7,2.9
	l1.7,27.2l4.6,3.5L89,131.5l7,2.9V164l5.2,2.9v-29l7,4.1v31.3c0,0,10.4-4.1,14.5-6.9S129.5,164,129.5,164z"/>
<path d="M55,110.9l53.3,26.7l0.1-12l-36.6-14.7l-1.4-6.7l38,13v-80l-10.5,5.3l-0.3,6.1c0,0-24.3,2.4-31.3,18s-4.6,23.2-4.6,23.2
	l-7-2.3L55,110.9z"/>
<polyline points="108.3,129 145.7,114.1 149.5,108 142.5,111.5 108.5,125.6 "/>
<polygon points="115.3,103.4 116.5,106.9 152.4,93.5 153,89.5 150.1,91.8 "/>
<polyline points="108.3,37.3 109.5,36.8 109.5,117.9 108.3,117.3 "/>
<path d="M109.5,41.6l5.8,2.7l0.6,40l1.7,1.2l2.3-30.7c0,0,6.4,0,18,5.8S153.6,82,153.6,82l1.7,1.2c0,0,1.2-15.2-11.6-23.8
	c-7.5-5.1-15.5-9.3-24-12.5v-3.5L109.2,37"/>
<polygon points="112.4,166.6 116.5,164.2 118.8,142.8 119.9,141.1 121.7,142.2 120.5,165.4 112.4,169.5 "/>
<polygon points="124,158.4 124.6,161.3 132.1,156.7 134.4,135.3 132.1,134.7 128.1,155 "/>
<polygon points="146,128.9 143.7,146.3 136.2,151.5 136.2,146.9 141.4,143.4 143.7,128.9 "/>
<path d="M78.3,157.3c8.2,9.7,18,17.9,29.1,24.1v5.2c0,0,20.9-11,29.6-19.1s12.5-10.7,12.5-10.7c-13.9,19.1-42.3,33.6-42.3,33.6
	s-4.1-2.3-12.8-8.1s-29.6-24.9-34.8-30.7s6.7-8.7,6.7-8.7"/>
</svg>
