<svg xmlns="http://www.w3.org/2000/svg" viewBox="0 0 759.4 128.31"><defs><style>.cls-1{fill:#fcd0a1;}.cls-1,.cls-2,.cls-3,.cls-4{stroke:#000;stroke-miterlimit:10;stroke-width:0.25px;}.cls-2{fill:#4d4d4d;}.cls-3{fill:none;}.cls-4{fill:#383f51;}</style></defs><title>nav_scroll_3</title><g id="Layer_2" data-name="Layer 2"><g id="Layer_1-2" data-name="Layer 1"><path class="cls-1" d="M757.92,11.19a13.47,13.47,0,0,1-.47,1.77c-2.2,6.55-8.7,8.94-14.18,9.23a36.15,36.15,0,0,1,1.05-8s-13.6-5.5-12.56,2.5c0,0-1,5.5,2.09,13.5s5.29,58,2.14,75c-.27,1.45-.52,2.78-.75,4l-.48,2.42h0a16.71,16.71,0,0,0-2.94-.32c-19-.67-676.25,13.32-676.25,13.32s-32.36,1.6-43.87-.4-12.55-7-10.46-13,2.05-43,3.09-55C5.35,44.4.61,12.93.45,11.28c.76,1.67,3.23,4.86,11.3,6.06a60.21,60.21,0,0,0,13.9.15c4.33-.37,9,1.31,14.91.12C80.31,9.61,761.05-4.81,757.92,11.19Z"/><path class="cls-2" d="M26,5.92V6c-.08,1.63-1.37,3.21-3.85,4.23A14.75,14.75,0,0,1,15,11.35l-.17-4.14S9.92,7,11.34,9.67c0,0,1.12,5.88.41,7.67C3.68,16.14,1.21,13,.45,11.28h0a3.58,3.58,0,0,1-.31-1.06s-1-9,12.55-10C21.63-.45,26.06,2.78,26,5.92Z"/><path class="cls-3" d="M.45,11.27v0"/><path class="cls-2" d="M744.32,14.19a36.15,36.15,0,0,0-1.05,8c-6.1.33-11-1.45-11.51-5.5C730.72,8.69,744.32,14.19,744.32,14.19Z"/><path class="cls-1" d="M752.73,126.19c-5.22,3-11.51,2-15.69,1s-5.23-4-5.23-4,.69-.66,2.62-10l.32-1.58h0l.48-2.42c.23-1.22.48-2.55.75-4,3.15-17,1-67-2.14-75s-2.09-13.5-2.09-13.5c.54,4,5.41,5.83,11.51,5.5,5.48-.29,12-2.68,14.18-9.23,0,0-.53,48.23-1.58,59.23s2.1,32,3.15,41S758,123.19,752.73,126.19Z"/><path class="cls-4" d="M15,11.35a6.11,6.11,0,0,1-3.2-1,2.31,2.31,0,0,1-.18-.23,3.61,3.61,0,0,1-.24-.41C9.92,7,14.79,7.21,14.79,7.21Z"/><path class="cls-1" d="M25.65,17.49a60.21,60.21,0,0,1-13.9-.15c.71-1.79-.41-7.67-.41-7.67a3.61,3.61,0,0,0,.24.41,2.31,2.31,0,0,0,.18.23,6.11,6.11,0,0,0,3.2,1,14.75,14.75,0,0,0,7.15-1.14c2.48-1,3.77-2.6,3.85-4.23C26.09,7.59,26.57,15,25.65,17.49Z"/><line class="cls-3" x1="25.65" y1="17.5" x2="25.65" y2="17.49"/><path class="cls-3" d="M26,5.92c0-.16,0-.25,0-.25"/></g></g></svg>