<svg xmlns="http://www.w3.org/2000/svg" viewBox="0 0 178.4 106.99"><defs><style>.cls-1{fill:#fcd0a1;}.cls-1,.cls-2,.cls-3,.cls-4{stroke:#000;stroke-miterlimit:10;stroke-width:0.25px;}.cls-2{fill:#4d4d4d;}.cls-3{fill:none;}.cls-4{fill:#383f51;}</style></defs><title>scroll</title><g id="Layer_2" data-name="Layer 2"><g id="Layer_1-2" data-name="Layer 1"><path class="cls-1" d="M175.92,6.54a13.47,13.47,0,0,1-.47,1.77c-2.2,6.55-8.7,8.94-14.18,9.23a36.15,36.15,0,0,1,1-8S148.72,4,149.76,12c0,0-1,5.5,2.09,13.5s6.29,39,3.14,56l-.75,4L153.76,88h0a16.71,16.71,0,0,0-2.94-.32c-19-.67-94.17,12.9-94.17,12.9s-32.44,8-43.95,6-12.55-7-10.46-13,1-4,2.09-16C5.35,65.73.61,14.26.45,12.61c.76,1.67,3.23,4.86,11.3,6.06a60.21,60.21,0,0,0,13.9.15A137.49,137.49,0,0,0,41,16.54C80.7,8.54,179.05-9.46,175.92,6.54Z"/><path class="cls-2" d="M26,7.25v.06c-.08,1.63-1.37,3.21-3.85,4.23A14.75,14.75,0,0,1,15,12.68l-.17-4.14S9.92,8.3,11.34,11c0,0,1.12,5.88.41,7.67C3.68,17.47,1.21,14.28.45,12.61h0a3.58,3.58,0,0,1-.31-1.06s-1-9,12.55-10C21.63.88,26.06,4.11,26,7.25Z"/><path class="cls-3" d="M.45,12.6v0"/><path class="cls-2" d="M162.32,9.54a36.15,36.15,0,0,0-1,8c-6.1.33-11-1.45-11.51-5.5C148.72,4,162.32,9.54,162.32,9.54Z"/><path class="cls-1" d="M171.73,102.54c-5.22,3-11.51,2-15.69,1s-5.23-4-5.23-4,.69-.66,2.62-10l.32-1.58h0l.48-2.42.75-4c3.15-17,0-48-3.14-56S149.76,12,149.76,12c.54,4.05,5.41,5.83,11.51,5.5,5.48-.29,12-2.68,14.18-9.23a155.08,155.08,0,0,1-.58,20.23c-1,11,2.1,52,3.15,61S177,99.54,171.73,102.54Z"/><path class="cls-4" d="M15,12.68a6.11,6.11,0,0,1-3.2-1,2.31,2.31,0,0,1-.18-.23,3.61,3.61,0,0,1-.24-.41c-1.42-2.7,3.45-2.46,3.45-2.46Z"/><path class="cls-1" d="M25.65,18.82a60.21,60.21,0,0,1-13.9-.15c.71-1.79-.41-7.67-.41-7.67a3.61,3.61,0,0,0,.24.41,2.31,2.31,0,0,0,.18.23,6.11,6.11,0,0,0,3.2,1,14.75,14.75,0,0,0,7.15-1.14c2.48-1,3.77-2.6,3.85-4.23C26.09,8.92,26.57,16.33,25.65,18.82Z"/><line class="cls-3" x1="25.65" y1="18.83" x2="25.65" y2="18.82"/><path class="cls-3" d="M26,7.25c0-.16,0-.25,0-.25"/></g></g></svg>